# xmcd
#
# Track frame offsets:
#	150
#	18910
#	34530
#	58325
#	77487
#	93838
#	116179
#	135905
#	154237
#	177975
#	201302
#	217400
#	248408
#	283362
#
# Disc length: 4060 seconds
#
# Revision: 1
# Processed by: cddbd v1.5.2PL0 Copyright (c) Steve Scherf et al.
# Submitted via: audiograbber 1.83.01
#
DISCID=c60fda0e
DTITLE=RatleSnake Blues Band - Ready To Rattle
DYEAR=2015
DGENRE=Blues
TTITLE0=I Am Ready
TTITLE1=Get My Mojo Working
TTITLE2=Fever
TTITLE3=Hard To Handle
TTITLE4=San Francisco Bay Blues
TTITLE5=T-Bone Shuffle
TTITLE6=Dont Mess With The Messer
TTITLE7=Rack Em Up
TTITLE8=Doctor Doctor
TTITLE9=Howling For My Darling
TTITLE10=Roberta
TTITLE11=Cantaloupe Island u Papa Was A Rolling Stone
TTITLE12=The Thrill Is Gone
TTITLE13=On The Road Again
EXTD=
EXTT0=
EXTT1=
EXTT2=
EXTT3=
EXTT4=
EXTT5=
EXTT6=
EXTT7=
EXTT8=
EXTT9=
EXTT10=
EXTT11=
EXTT12=
EXTT13=
PLAYORDER=
